<svg xmlns="http://www.w3.org/2000/svg" viewBox="0 0 48 48" width="48" height="48" fill="none" role="img" aria-label="Weaver">
  <title>Weaver</title>
  
  <g stroke="currentColor" stroke-width="1" stroke-linecap="round" stroke-linejoin="round" opacity="0.55">
    <path d="M4 14 Q 13.5 4 24 2.6 Q 34.5 4 44 16"></path>
    <path d="M10 5.5 L 24 2 L 39 7"></path>
    <path d="M4 14 L 17 2.5 M44 16 L 31 3.5"></path>
  </g>
  
  <g stroke="currentColor" stroke-width="1.45" stroke-linecap="round" opacity="0.85">
    <path d="M9 21 L 4 14"></path>
    <path d="M9 21 L 10 5.5"></path>
    <path d="M17.5 15.2 L 17 2.5"></path>
    <path d="M22 11.6 L 24 2"></path>
    <path d="M26.4 13.6 L 31 3.5"></path>
    <path d="M30.3 18 L 39 7"></path>
    <path d="M30.3 18 L 44 16"></path>
  </g>
  
  <path d="M17 43 L16.5 35 Q14.8 33 13.8 31 L9.8 24.5 Q8.2 22.2 9.4 21 Q10.8 20 12 22 L14.5 26.5 Q15 27.5 15.8 27.2 L15.8 16.6 Q17.5 14.6 19.2 16.6 L19.2 24.5 Q19.7 26 20.2 24.5 L20.2 13 Q22 10.8 23.8 13 L23.8 24.5 Q24.2 26 24.65 24.7 L24.65 14.8 Q26.4 12.8 28.15 14.8 L28.15 25 Q28.45 26.4 28.75 25.4 L28.75 19 Q30.3 17.2 31.85 19 L31.9 27 Q32.6 31 32 34 L30 43 Q23.5 44.2 17 43 Z" fill="currentColor"></path>
  
  <g fill="currentColor">
    <circle cx="4" cy="14" r="1.4"></circle>
    <circle cx="10" cy="5.5" r="1.4"></circle>
    <circle cx="17" cy="2.5" r="1.4"></circle>
    <circle cx="24" cy="2" r="1.5"></circle>
    <circle cx="31" cy="3.5" r="1.4"></circle>
    <circle cx="39" cy="7" r="1.4"></circle>
    <circle cx="44" cy="16" r="1.4"></circle>
  </g>
</svg>